<?xml version="1.0" encoding="UTF-8"?>
<!DOCTYPE svg PUBLIC "-//W3C//DTD SVG 1.1//EN" "http://www.w3.org/Graphics/SVG/1.1/DTD/svg11.dtd">
<!-- Creator: CorelDRAW 2020 (64-Bit) -->
<svg xmlns="http://www.w3.org/2000/svg" xml:space="preserve" width="51.2469mm" height="51.2375mm" version="1.1" style="shape-rendering:geometricPrecision; text-rendering:geometricPrecision; image-rendering:optimizeQuality; fill-rule:evenodd; clip-rule:evenodd"
viewBox="0 0 2361.17 2360.73"
 xmlns:xlink="http://www.w3.org/1999/xlink"
 xmlns:xodm="http://www.corel.com/coreldraw/odm/2003">
 <defs>
  <style type="text/css">
   <![CDATA[
    .fil0 {fill:#377DB7}
    .fil1 {fill:#FFC330}
   ]]>
  </style>
 </defs>
 <g id="Capa_x0020_1">
  <metadata id="CorelCorpID_0Corel-Layer"/>
  <g id="_2562182244512">
   <path class="fil0" d="M612.45 336.14l3.9 179.45 561.74 0 0 101.42 -585.14 0c-69.77,0 -258.89,-10.38 -314.34,-2.27 -46.81,6.85 -70.7,3.42 -117.83,42.12 -34.41,28.25 -67.83,71.74 -86.66,112.29l-33.47 87.46c-21.98,77.04 -36.44,171.78 -40.65,270.75l0 118.66c6.76,155.72 40.98,308.79 113.09,408.67 29.64,41.05 83.21,86.35 140.35,85.91 37.36,-0.29 67.99,3.78 109.35,3.78 190.9,0 148.23,9.28 148.23,-39.01l0 -159.94c0,-42.02 6.73,-70.19 7.8,-109.23 3.71,-135.79 133.87,-278.01 296.23,-300.62 70.29,-9.79 543.1,-3.65 640.01,-3.65 179.39,0 292.57,-88.32 292.57,-273.07l0 -550.04c0,-105.85 -32.57,-152.82 -106.36,-205.71 -55.75,-39.97 -158.54,-71.26 -229.05,-83.02 -209.08,-34.88 -528.39,-35.73 -704.5,91.43 -81.8,59.06 -95.26,114.85 -95.26,224.62zm260.04 29.6c58.57,0 106.06,-47.48 106.06,-106.06 0,-58.57 -47.48,-106.06 -106.06,-106.06 -58.57,0 -106.06,47.48 -106.06,106.06 0,58.57 47.48,106.06 106.06,106.06z"/>
   <path class="fil1" d="M1849.05 827.66c0,149.85 -37.39,270.74 -173.81,352.82 -63.16,38.01 -117.6,48.98 -216.29,48.98l-526.63 0c-93.79,-0 -162.43,6.81 -217.4,47.87 -125.11,93.43 -98.58,227.37 -98.58,424.15l0 237.96c0,152.13 -27.9,242.66 132.8,335.32 85.76,49.45 230.03,80.03 382.22,85.99l109.63 0c179.09,-7.16 352.53,-49.9 439.34,-137.5 39.2,-39.55 63.38,-61.63 63.38,-139.47l0 -226.26c0,-8.99 -2.71,-11.7 -11.7,-11.7 -142.88,0 -397.18,-4.86 -527.51,2.66 -11.04,0.64 -10.92,-1.7 -22.53,-2.66l0 -101.42 542.23 0c100.93,0 190.16,3.87 288.67,3.9 119.21,0.03 180.16,-10.95 248.89,-113.89 11.49,-17.21 17.05,-27.76 26.82,-47.3 99.57,-199.18 105.43,-677.8 -37.7,-876.52 -6.81,-9.45 -14.7,-17.59 -22.88,-27.83 -28.98,-36.26 -76.99,-65.73 -129.31,-65.73l-249.66 0 0 210.65zm-360.38 1167.34c-58.57,0 -106.06,47.48 -106.06,106.06 0,58.57 47.48,106.06 106.06,106.06 58.57,0 106.06,-47.48 106.06,-106.06 0,-58.57 -47.48,-106.06 -106.06,-106.06z"/>
  </g>
 </g>
</svg>
